<svg width="200" height="234" viewBox="0 0 200 234" fill="none" xmlns="http://www.w3.org/2000/svg">
<path d="M100 220C155.228 220 200 175.229 200 120C200 64.7716 155.228 20.0001 100 20.0001C44.7715 20.0001 0 64.7716 0 120C0 175.229 44.7715 220 100 220Z" fill="url(#paint0_linear_222_6743)"/>
<g filter="url(#filter0_d_222_6743)">
<path d="M157.334 77.3337H42.6669C38.985 77.3337 36.0002 80.3185 36.0002 84.0004V224C36.0002 227.682 38.985 230.667 42.6669 230.667H157.334C161.015 230.667 164 227.682 164 224V84.0004C164 80.3185 161.015 77.3337 157.334 77.3337Z" fill="white"/>
</g>
<path d="M86.6667 97.3334H52C49.7909 97.3334 48 99.1242 48 101.333C48 103.543 49.7909 105.333 52 105.333H86.6667C88.8758 105.333 90.6667 103.543 90.6667 101.333C90.6667 99.1242 88.8758 97.3334 86.6667 97.3334Z" fill="#D0D5DD"/>
<path d="M110.667 114.667H52C49.7909 114.667 48 116.458 48 118.667C48 120.876 49.7909 122.667 52 122.667H110.667C112.876 122.667 114.667 120.876 114.667 118.667C114.667 116.458 112.876 114.667 110.667 114.667Z" fill="#EAECF0"/>
<path d="M86.6667 133.334H52C49.7909 133.334 48 135.124 48 137.334C48 139.543 49.7909 141.334 52 141.334H86.6667C88.8758 141.334 90.6667 139.543 90.6667 137.334C90.6667 135.124 88.8758 133.334 86.6667 133.334Z" fill="#D0D5DD"/>
<path d="M110.667 150.667H52C49.7909 150.667 48 152.458 48 154.667C48 156.876 49.7909 158.667 52 158.667H110.667C112.876 158.667 114.667 156.876 114.667 154.667C114.667 152.458 112.876 150.667 110.667 150.667Z" fill="#EAECF0"/>
<path d="M86.6667 169.334H52C49.7909 169.334 48 171.125 48 173.334C48 175.543 49.7909 177.334 52 177.334H86.6667C88.8758 177.334 90.6667 175.543 90.6667 173.334C90.6667 171.125 88.8758 169.334 86.6667 169.334Z" fill="#D0D5DD"/>
<path d="M110.667 186.667H52C49.7909 186.667 48 188.458 48 190.667C48 192.876 49.7909 194.667 52 194.667H110.667C112.876 194.667 114.667 192.876 114.667 190.667C114.667 188.458 112.876 186.667 110.667 186.667Z" fill="#EAECF0"/>
<g filter="url(#filter1_d_222_6743)">
<path d="M157.333 9.33289H42.6667C38.9848 9.33289 36 12.3177 36 15.9996V55.9995C36 59.6814 38.9848 62.6662 42.6667 62.6662H157.333C161.015 62.6662 164 59.6814 164 55.9995V15.9996C164 12.3177 161.015 9.33289 157.333 9.33289Z" fill="#98A2B3"/>
</g>
<path d="M86.6664 24.0002H51.9998C49.7906 24.0002 47.9998 25.7911 47.9998 28.0002C47.9998 30.2094 49.7906 32.0002 51.9998 32.0002H86.6664C88.8756 32.0002 90.6664 30.2094 90.6664 28.0002C90.6664 25.7911 88.8756 24.0002 86.6664 24.0002Z" fill="#EAECF0"/>
<path d="M110.666 41.3337H51.9998C49.7906 41.3337 47.9998 43.1246 47.9998 45.3337C47.9998 47.5429 49.7906 49.3337 51.9998 49.3337H110.666C112.876 49.3337 114.666 47.5429 114.666 45.3337C114.666 43.1246 112.876 41.3337 110.666 41.3337Z" fill="white"/>
<defs>
<filter id="filter0_d_222_6743" x="30.0002" y="68.3337" width="140" height="165.333" filterUnits="userSpaceOnUse" color-interpolation-filters="sRGB">
<feFlood flood-opacity="0" result="BackgroundImageFix"/>
<feColorMatrix in="SourceAlpha" type="matrix" values="0 0 0 0 0 0 0 0 0 0 0 0 0 0 0 0 0 0 127 0" result="hardAlpha"/>
<feOffset dy="-3"/>
<feGaussianBlur stdDeviation="3"/>
<feColorMatrix type="matrix" values="0 0 0 0 0.788235 0 0 0 0 0.803922 0 0 0 0 0.85098 0 0 0 0.349 0"/>
<feBlend mode="normal" in2="BackgroundImageFix" result="effect1_dropShadow_222_6743"/>
<feBlend mode="normal" in="SourceGraphic" in2="effect1_dropShadow_222_6743" result="shape"/>
</filter>
<filter id="filter1_d_222_6743" x="30" y="0.332886" width="140" height="65.3333" filterUnits="userSpaceOnUse" color-interpolation-filters="sRGB">
<feFlood flood-opacity="0" result="BackgroundImageFix"/>
<feColorMatrix in="SourceAlpha" type="matrix" values="0 0 0 0 0 0 0 0 0 0 0 0 0 0 0 0 0 0 127 0" result="hardAlpha"/>
<feOffset dy="-3"/>
<feGaussianBlur stdDeviation="3"/>
<feColorMatrix type="matrix" values="0 0 0 0 0.788235 0 0 0 0 0.803922 0 0 0 0 0.85098 0 0 0 0.349 0"/>
<feBlend mode="normal" in2="BackgroundImageFix" result="effect1_dropShadow_222_6743"/>
<feBlend mode="normal" in="SourceGraphic" in2="effect1_dropShadow_222_6743" result="shape"/>
</filter>
<linearGradient id="paint0_linear_222_6743" x1="100" y1="20.0001" x2="100" y2="220" gradientUnits="userSpaceOnUse">
<stop stop-color="#EAECF0"/>
<stop offset="1" stop-color="#EAECF0"/>
</linearGradient>
</defs>
</svg>
