<svg width="606" height="440" viewBox="0 0 606 440" fill="none" xmlns="http://www.w3.org/2000/svg">
<rect width="606" height="440"/>
<path d="M97.2913 329.843L146.275 322.265L110.416 301.562L97.2913 329.843ZM128.346 315.499L200.685 273.734L194.474 270.148L122.135 311.913L128.346 315.499Z" fill="#0081F1"/>
<path d="M190.012 272.02L238.996 264.442L203.137 243.739L190.012 272.02ZM290.3 214.118L241.316 221.696L277.175 242.399L290.3 214.118ZM221.066 257.676L265.456 232.048L259.245 228.462L214.855 254.09L221.066 257.676Z" fill="#0081F1"/>
<path d="M355.726 156.277V156.277C375.311 146.098 405.36 146.742 423.583 157.732L488.407 196.826" stroke="#474C59" stroke-width="4.09812" stroke-dasharray="4.1 4.1"/>
<path d="M263.686 74.7513L346.467 116.598C368.306 127.638 369.419 147.04 348.894 158.89L263.686 208.085" stroke="#474C59" stroke-width="4.09812" stroke-dasharray="4.1 4.1"/>
<g filter="url(#filter0_d_106_9492)">
<g clip-path="url(#clip0_106_9492)">
<rect width="135.981" height="38.2944" rx="19.1472" transform="matrix(0.866025 0.5 -0.866025 0.5 172.395 223.864)" fill="#0081F1"/>
<path d="M189.063 246.467L173.715 250.773L171.527 249.51L178.986 240.649L181.078 241.857L176.398 247.214C176.281 247.368 176.106 247.555 175.871 247.776C175.658 247.998 175.43 248.222 175.185 248.449C174.961 248.677 174.748 248.874 174.546 249.04C174.823 248.917 175.153 248.788 175.536 248.652C175.941 248.517 176.335 248.388 176.718 248.265C177.112 248.136 177.437 248.034 177.692 247.961L186.971 245.259L189.063 246.467ZM193.788 249.195C194.789 249.773 195.492 250.32 195.897 250.836C196.301 251.353 196.413 251.848 196.232 252.321C196.062 252.788 195.599 253.24 194.843 253.676C194.289 253.996 193.709 254.208 193.102 254.313C192.506 254.423 191.909 254.46 191.313 254.423C190.727 254.38 190.163 254.294 189.62 254.165L187.879 258.951L185.579 257.623L187.352 253.446L185.691 252.487L181.187 255.087L179.143 253.907L190.546 247.323L193.788 249.195ZM191.952 250.108L190.882 249.49L187.368 251.519L188.502 252.173C189.066 252.499 189.593 252.723 190.083 252.846C190.573 252.969 191.031 253 191.457 252.939C191.893 252.883 192.309 252.742 192.702 252.514C193.118 252.275 193.357 252.032 193.421 251.786C193.496 251.534 193.405 251.273 193.15 251.002C192.915 250.732 192.516 250.434 191.952 250.108ZM191.48 261.03L189.468 259.868L200.871 253.284L207.34 257.019L205.631 258.005L201.175 255.433L197.821 257.369L201.973 259.766L200.264 260.753L196.112 258.356L191.48 261.03ZM207.756 263.068L215.39 261.667L217.594 262.939L206.846 264.774L202.406 267.338L200.362 266.157L204.722 263.64L207.98 257.388L210.2 258.67L207.756 263.068ZM207.261 268.96C207.708 268.702 208.139 268.588 208.555 268.619C208.98 268.644 209.364 268.754 209.704 268.951C210.045 269.148 210.242 269.366 210.295 269.606C210.359 269.852 210.162 270.107 209.704 270.371C209.268 270.623 208.831 270.734 208.395 270.703C207.969 270.678 207.586 270.568 207.245 270.371C206.904 270.174 206.713 269.953 206.67 269.707C206.627 269.461 206.824 269.212 207.261 268.96ZM225.983 267.783C227.463 268.637 228.23 269.436 228.283 270.18C228.347 270.93 227.836 271.619 226.75 272.246C226.26 272.528 225.717 272.756 225.121 272.928C224.535 273.094 223.891 273.177 223.189 273.177C222.486 273.177 221.746 273.069 220.969 272.854C220.202 272.645 219.398 272.298 218.557 271.812L217.423 271.158L213.223 273.583L211.179 272.402L222.582 265.819L225.983 267.783ZM224.163 268.686L222.933 267.976L219.116 270.18L220.042 270.715C220.596 271.035 221.128 271.268 221.639 271.416C222.172 271.563 222.683 271.612 223.173 271.563C223.662 271.514 224.136 271.357 224.594 271.093C225.222 270.73 225.504 270.352 225.44 269.959C225.377 269.565 224.951 269.141 224.163 268.686ZM227.314 281.718L229.295 279.376L224.999 276.896L220.958 278.049L218.786 276.795L234.421 272.599L236.753 273.945L229.486 282.973L227.314 281.718ZM232.473 275.79C232.579 275.679 232.718 275.525 232.888 275.328C233.059 275.132 233.234 274.932 233.415 274.729C233.618 274.526 233.788 274.36 233.926 274.231C233.66 274.323 233.346 274.425 232.984 274.536C232.633 274.652 232.297 274.76 231.978 274.858C231.669 274.963 231.43 275.04 231.259 275.089L227.314 276.204L230.525 278.058L232.473 275.79ZM241.486 282.672L245.799 285.161L240.001 288.508C239.192 288.275 238.415 288.004 237.669 287.697C236.924 287.39 236.147 287.002 235.338 286.535C234.188 285.871 233.442 285.177 233.102 284.451C232.761 283.726 232.82 282.991 233.277 282.247C233.735 281.504 234.592 280.769 235.849 280.044C237.041 279.355 238.308 278.894 239.65 278.661C240.991 278.427 242.338 278.424 243.69 278.651C245.053 278.885 246.368 279.368 247.635 280.099C248.253 280.456 248.785 280.837 249.232 281.242C249.701 281.648 250.068 282.051 250.334 282.45L247.955 283.013C247.774 282.699 247.502 282.37 247.14 282.026C246.799 281.682 246.374 281.362 245.862 281.067C245.085 280.618 244.244 280.33 243.339 280.2C242.434 280.071 241.513 280.099 240.576 280.283C239.66 280.468 238.782 280.803 237.941 281.288C237.132 281.756 236.53 282.238 236.136 282.736C235.753 283.228 235.641 283.723 235.801 284.221C235.971 284.712 236.466 285.195 237.286 285.668C237.563 285.828 237.813 285.96 238.037 286.065C238.271 286.176 238.489 286.271 238.692 286.351C238.904 286.437 239.107 286.517 239.298 286.59L242.045 285.004L239.746 283.677L241.486 282.672ZM248.747 294.092L242.262 290.349L253.666 283.765L260.15 287.509L258.441 288.495L254.001 285.932L251.094 287.61L255.247 290.008L253.538 290.994L249.385 288.597L246.032 290.533L250.471 293.096L248.747 294.092Z" fill="white"/>
</g>
<rect x="9.16002e-08" y="-1.5368" width="139.055" height="41.368" rx="20.684" transform="matrix(0.866025 0.5 -0.866025 0.5 171.064 223.095)" stroke="white" stroke-width="3.07359"/>
</g>
<path d="M187.066 68.7547C187.066 68.8551 187.076 68.9546 187.095 69.0517L187.095 69.0527C187.104 69.1095 187.12 69.1926 187.145 69.2945C187.195 69.4976 187.282 69.7614 187.433 70.0561C187.743 70.6599 188.291 71.3252 189.218 71.8606L220.931 90.1701C222.143 90.8696 223.634 91.1754 225.043 91.1754C226.451 91.1754 227.942 90.8696 229.154 90.1701L293.506 53.0165C294.417 52.4902 294.959 51.8355 295.269 51.2486C295.421 50.9617 295.51 50.706 295.563 50.5121C295.585 50.4335 295.6 50.3677 295.61 50.3203C295.642 50.1977 295.658 50.0692 295.658 49.9367C295.658 49.8141 295.658 49.5208 295.658 49.1065C295.659 48.0259 295.659 46.1225 295.659 44.2803C295.659 43.0051 295.659 41.7575 295.658 40.8284C295.658 40.364 295.657 39.9786 295.657 39.709C295.656 39.5745 295.656 39.4675 295.656 39.3936L295.655 39.3034L295.655 39.2654C295.654 39.2605 295.654 39.2449 295.653 39.2261L295.653 39.2255C295.653 39.2185 295.652 39.1912 295.649 39.1572C295.647 39.1347 295.638 39.0682 295.631 39.0243C295.604 38.9004 295.005 38.0366 294.118 37.7545V39.2913L295.651 39.1795C295.553 37.8389 294.644 36.8029 293.506 36.146L261.793 17.8366C260.581 17.137 259.09 16.8312 257.681 16.8312C256.273 16.8312 254.782 17.137 253.57 17.8366L189.218 54.9902C188.101 55.6352 187.205 56.6442 187.08 57.9515C187.077 57.9788 187.075 57.9986 187.075 58.0051L187.075 58.0059C187.073 58.0343 187.072 58.0576 187.072 58.0642L187.072 58.0645C187.071 58.083 187.071 58.1009 187.071 58.1121C187.07 58.1376 187.07 58.1704 187.07 58.2073C187.069 58.2824 187.069 58.3903 187.068 58.525C187.067 58.7952 187.067 59.181 187.066 59.6454C187.065 60.5745 187.065 61.8222 187.065 63.0972C187.065 64.9366 187.065 66.8391 187.065 67.9209C187.066 68.3371 187.066 68.6318 187.066 68.7547Z" fill="#474C59" stroke="#474C59" stroke-width="3.07359" stroke-linejoin="round"/>
<path d="M254.338 29.599C256.185 28.5331 259.178 28.5331 261.024 29.599L277.956 39.3743H294.121V49.799C294.122 49.8253 294.122 49.8517 294.121 49.878V50.0197H294.112C294.039 50.6567 293.58 51.2817 292.737 51.7686L228.385 88.9221C226.539 89.9881 223.546 89.9881 221.699 88.9221L189.987 70.6127C189.132 70.1191 188.673 69.4836 188.609 68.8376H188.602L188.602 68.7218C188.602 68.6957 188.602 68.6696 188.602 68.6435L188.602 58.1922H204.813L254.338 29.599Z" fill="url(#paint0_linear_106_9492)"/>
<path d="M254.338 19.2505C256.185 18.1846 259.178 18.1846 261.024 19.2505L292.737 37.56C294.583 38.6259 294.583 40.3541 292.737 41.42L228.385 78.5736C226.539 79.6396 223.546 79.6396 221.699 78.5736L189.987 60.2642C188.14 59.1982 188.14 57.47 189.987 56.4041L254.338 19.2505Z" fill="url(#paint1_linear_106_9492)"/>
<path d="M255.42 24.0186C256.733 23.2607 258.861 23.2607 260.174 24.0186L283.835 37.6794C285.148 38.4373 285.148 39.6661 283.835 40.424L237.609 67.1125C236.297 67.8704 234.168 67.8704 232.856 67.1125L209.194 53.4518C207.882 52.6939 207.882 51.4651 209.194 50.7072L255.42 24.0186Z" fill="url(#paint2_linear_106_9492)"/>
<ellipse rx="4.82511" ry="4.82511" transform="matrix(0.866025 0.5 -0.866025 0.5 213.043 64.0856)" fill="url(#paint3_linear_106_9492)"/>
<path d="M432.435 201.884V201.97C432.435 202.008 432.435 202.045 432.435 202.082V212.32C432.435 212.356 432.435 212.393 432.435 212.43V212.53C432.435 212.652 432.45 212.77 432.476 212.884C432.673 214.091 433.531 215.026 434.588 215.636L435.356 214.305L434.588 215.636L519.833 264.852C521.045 265.551 522.536 265.857 523.944 265.857C525.352 265.857 526.844 265.551 528.055 264.852L592.407 227.698C593.598 227.011 594.54 225.904 594.56 224.482L594.56 224.46L594.561 214.089C594.561 212.647 593.61 211.522 592.407 210.828L507.163 161.612L506.394 162.943L507.163 161.612C505.951 160.912 504.459 160.606 503.051 160.606C501.643 160.606 500.152 160.912 498.94 161.612L434.588 198.765C433.517 199.384 432.65 200.336 432.469 201.565C432.447 201.67 432.435 201.776 432.435 201.884Z" fill="#474C59" stroke="#474C59" stroke-width="3.07359" stroke-linejoin="round"/>
<path d="M499.709 173.374C501.555 172.308 504.548 172.308 506.394 173.374L577.058 214.172H593.024V224.543C593.014 225.234 592.552 225.923 591.639 226.45L527.287 263.604C525.441 264.67 522.448 264.67 520.601 263.604L435.357 214.388C434.502 213.894 434.043 213.259 433.98 212.613H433.972L433.972 212.497C433.972 212.471 433.972 212.445 433.972 212.418L433.972 201.967H450.184L499.709 173.374Z" fill="url(#paint4_linear_106_9492)"/>
<path d="M499.708 163.026C501.555 161.96 504.548 161.96 506.394 163.026L591.639 212.242C593.485 213.308 593.485 215.036 591.639 216.102L527.287 253.255C525.441 254.321 522.448 254.321 520.601 253.255L435.357 204.039C433.51 202.973 433.51 201.245 435.357 200.179L499.708 163.026Z" fill="url(#paint5_linear_106_9492)"/>
<path d="M500.79 167.794C502.103 167.036 504.231 167.036 505.544 167.794L583.11 212.577C584.423 213.334 584.423 214.563 583.11 215.321L526.437 248.041C525.125 248.799 522.996 248.799 521.684 248.041L444.118 203.258C442.805 202.501 442.805 201.272 444.118 200.514L500.79 167.794Z" fill="url(#paint6_linear_106_9492)"/>
<path d="M444.499 99.3594L361.507 150.023" stroke="#474C59" stroke-width="4.09812" stroke-dasharray="4.1 4.1"/>
<path d="M114.705 316.858C90.7522 303.022 51.9174 303.022 27.9648 316.858C19.7461 321.605 14.3474 327.365 11.7688 333.442H10.0003V341.793C9.9484 350.899 15.9368 360.014 27.9648 366.962L114.705 417.066C138.657 430.902 177.492 430.902 201.445 417.066C213.289 410.225 219.276 401.281 219.407 392.314H219.409V383.964H217.813C215.308 377.733 209.852 371.818 201.445 366.962L114.705 316.858Z" fill="url(#paint7_linear_106_9492)"/>
<path d="M27.9652 308.507C51.9178 294.671 90.7527 294.671 114.705 308.507L201.445 358.611C225.398 372.447 225.398 394.88 201.445 408.715C177.493 422.551 138.658 422.551 114.705 408.715L27.9652 358.611C4.01265 344.775 4.01264 322.343 27.9652 308.507Z" fill="#F5F5F5"/>
<path d="M391.579 75.9753H391.579L391.578 75.9836L390.502 85.2413L390.492 85.3297V85.4187C390.492 89.0502 392.89 92.3659 396.987 94.7317C400.684 96.8662 405.337 98.0043 410.026 98.2099L409.973 98.7909L409.966 98.8606V98.9306C409.966 103.524 412.999 107.801 418.367 110.9C424.397 114.381 432.416 115.862 440.107 115.443C440.844 119.079 443.368 121.645 446.417 123.405C450.524 125.776 455.809 126.917 461.011 126.917C466.213 126.917 471.499 125.776 475.605 123.405C479.703 121.039 482.1 117.723 482.1 114.092C482.1 113.468 482.028 112.846 481.885 112.232L480.962 104.649C480.259 98.8674 477.537 93.7004 473.507 89.8829C476.427 86.7925 478.22 82.6202 478.22 78.0305C478.22 68.4982 470.493 60.7708 460.961 60.7708C459.784 60.7708 458.634 60.8888 457.523 61.1135C459.098 58.0404 459.987 54.5571 459.987 50.8682C459.987 38.4461 449.916 28.376 437.494 28.376C431.174 28.376 425.461 30.9848 421.377 35.18C418.584 33.2372 415.189 32.0975 411.53 32.0975C401.998 32.0975 394.271 39.8249 394.271 49.3572C394.271 53.9523 396.068 58.129 398.994 61.2205C394.983 65.0383 392.282 70.2016 391.579 75.9753Z" fill="#474C59" stroke="#474C59" stroke-width="3.07359"/>
<path d="M393.13 76.161C394.333 66.2796 401.779 58.3062 411.556 56.4325C421.332 58.3062 428.83 66.2796 430.032 76.161L430.965 83.8311C431.094 84.3574 431.159 84.888 431.159 85.4187C431.159 88.3076 429.25 91.1966 425.432 93.4008C417.796 97.8092 405.417 97.8092 397.781 93.4008C393.963 91.1966 392.054 88.3076 392.054 85.4187H392.004L393.13 76.161Z" fill="url(#paint8_linear_106_9492)"/>
<mask id="mask0_106_9492" style="mask-type:alpha" maskUnits="userSpaceOnUse" x="392" y="56" width="40" height="41">
<path d="M393.13 76.161C394.333 66.2796 401.779 58.3062 411.556 56.4325C421.332 58.3062 428.83 66.2796 430.032 76.161L430.965 83.8311C431.094 84.3574 431.159 84.888 431.159 85.4187C431.159 88.3076 429.25 91.1966 425.432 93.4008C417.796 97.8092 405.417 97.8092 397.781 93.4008C393.963 91.1966 392.054 88.3076 392.054 85.4187H392.004L393.13 76.161Z" fill="url(#paint9_linear_106_9492)"/>
</mask>
<g mask="url(#mask0_106_9492)">
<g style="mix-blend-mode:overlay" filter="url(#filter1_f_106_9492)">
<circle cx="410.009" cy="50.3911" r="15.7229" fill="black"/>
</g>
</g>
<ellipse cx="411.556" cy="49.3572" rx="15.7229" ry="15.7229" fill="url(#paint10_radial_106_9492)"/>
<path d="M412.962 86.5919C414.565 73.4222 424.49 62.7952 437.52 60.298C450.549 62.7952 460.542 73.4222 462.145 86.5919L463.389 96.8146C463.56 97.5161 463.646 98.2233 463.646 98.9305C463.646 102.781 461.102 106.631 456.014 109.569C445.837 115.445 429.337 115.445 419.161 109.569C414.072 106.631 411.528 102.781 411.528 98.9305H411.461L412.962 86.5919Z" fill="url(#paint11_linear_106_9492)"/>
<mask id="mask1_106_9492" style="mask-type:alpha" maskUnits="userSpaceOnUse" x="411" y="60" width="53" height="54">
<path d="M412.962 86.5919C414.565 73.4222 424.49 62.7952 437.52 60.298C450.549 62.7952 460.542 73.4222 462.145 86.5919L463.389 96.8146C463.56 97.5161 463.646 98.2233 463.646 98.9305C463.646 102.781 461.102 106.631 456.014 109.569C445.837 115.445 429.337 115.445 419.161 109.569C414.072 106.631 411.528 102.781 411.528 98.9305H411.461L412.962 86.5919Z" fill="url(#paint12_linear_106_9492)"/>
</mask>
<g mask="url(#mask1_106_9492)">
<g style="mix-blend-mode:overlay" filter="url(#filter2_f_106_9492)">
<circle cx="435.458" cy="52.2461" r="20.9553" fill="black"/>
</g>
</g>
<ellipse cx="437.52" cy="50.8682" rx="20.9553" ry="20.9553" fill="url(#paint13_radial_106_9492)"/>
<path d="M442.56 104.834C443.763 94.9527 451.209 86.9793 460.986 85.1056C470.762 86.9793 478.26 94.9527 479.462 104.834L480.395 112.504C480.524 113.031 480.589 113.561 480.589 114.092C480.589 116.981 478.68 119.87 474.862 122.074C467.226 126.482 454.847 126.482 447.211 122.074C443.393 119.87 441.484 116.981 441.484 114.092H441.434L442.56 104.834Z" fill="url(#paint14_linear_106_9492)"/>
<mask id="mask2_106_9492" style="mask-type:alpha" maskUnits="userSpaceOnUse" x="441" y="85" width="40" height="41">
<path d="M442.56 104.834C443.763 94.9527 451.209 86.9793 460.986 85.1056C470.762 86.9793 478.26 94.9527 479.462 104.834L480.395 112.504C480.524 113.031 480.589 113.561 480.589 114.092C480.589 116.981 478.68 119.87 474.862 122.074C467.226 126.482 454.847 126.482 447.211 122.074C443.393 119.87 441.484 116.981 441.484 114.092H441.434L442.56 104.834Z" fill="url(#paint15_linear_106_9492)"/>
</mask>
<g mask="url(#mask2_106_9492)">
<g style="mix-blend-mode:overlay" filter="url(#filter3_f_106_9492)">
<ellipse cx="459.439" cy="79.0643" rx="15.7229" ry="15.7229" fill="black"/>
</g>
</g>
<ellipse cx="460.986" cy="78.0304" rx="15.7229" ry="15.7229" fill="url(#paint16_radial_106_9492)"/>
<path d="M224.246 157.2H337.54V222.228L280.893 254.776L224.246 222.228V157.2Z" fill="url(#paint17_linear_106_9492)" stroke="#0081F1" stroke-width="0.647465"/>
<mask id="mask3_106_9492" style="mask-type:alpha" maskUnits="userSpaceOnUse" x="223" y="156" width="115" height="100">
<path d="M224.246 157.2H337.54V222.228L280.893 254.776L224.246 222.228V157.2Z" fill="white" stroke="white" stroke-width="0.647465"/>
</mask>
<g mask="url(#mask3_106_9492)">
<path fill-rule="evenodd" clip-rule="evenodd" d="M290.417 184.315L290.143 184.316L290.111 195.187L280.713 200.649L280.85 200.887L290.11 195.504L290.08 206.077L280.768 211.489L280.904 211.727L290.079 206.394L290.049 216.807L280.959 222.091L281.095 222.328L290.047 217.125L290.016 228.015L280.738 233.408L280.874 233.645L290.015 228.332L289.984 239.063L280.654 244.486L280.79 244.724L289.983 239.381L289.951 250.387L280.807 255.701L280.944 255.939L289.95 250.704L289.919 261.435L280.724 266.78L280.86 267.017L289.918 261.753L289.887 272.229L290.161 272.228L290.192 261.593L299.333 256.28L299.302 266.856L299.576 266.855L299.607 256.121L308.61 250.888L308.579 261.721L308.853 261.72L308.885 250.728L318.3 245.256L318.269 255.871L318.543 255.87L318.574 245.096L327.852 239.704L327.822 250.259L328.095 250.259L328.127 239.544L337.642 234.013L337.611 244.784L337.885 244.784L337.916 233.854L347.195 228.461L347.163 239.173L347.437 239.172L347.469 228.302L356.866 222.839L356.73 222.602L347.469 227.984L347.501 217.253L356.95 211.761L356.814 211.523L347.502 216.936L347.534 205.93L356.797 200.546L356.661 200.308L347.535 205.613L347.566 194.881L356.881 189.467L356.745 189.23L347.567 194.564L347.599 183.674L357.102 178.15L356.966 177.913L347.599 183.357L347.63 172.943L356.91 167.548L356.774 167.311L347.631 172.625L347.662 162.053L356.856 156.708L356.72 156.471L347.662 161.736L347.693 151.259L347.419 151.26L347.388 161.895L338.11 167.288L338.141 156.871L337.867 156.872L337.836 167.447L328.32 172.978L328.351 162.346L328.078 162.347L328.046 173.137L318.768 178.53L318.799 167.957L318.525 167.958L318.494 178.689L309.079 184.162L309.109 173.808L308.835 173.808L308.804 184.321L299.801 189.555L299.832 178.942L299.558 178.943L299.526 189.714L290.386 195.027L290.417 184.315ZM290.385 195.344L299.526 190.031L299.495 200.604L290.354 205.917L290.385 195.344ZM299.8 189.872L308.803 184.639L308.773 195.211L299.769 200.444L299.8 189.872ZM309.078 184.479L318.493 179.007L318.462 189.579L309.047 195.052L309.078 184.479ZM318.767 178.847L328.045 173.455L328.014 184.027L318.736 189.42L318.767 178.847ZM328.32 173.295L337.835 167.764L337.804 178.337L328.289 183.868L328.32 173.295ZM338.109 167.605L347.387 162.212L347.356 172.785L338.078 178.178L338.109 167.605ZM299.494 200.921L290.353 206.234L290.323 216.648L299.464 211.335L299.494 200.921ZM308.772 195.529L299.768 200.762L299.738 211.176L308.741 205.943L308.772 195.529ZM318.461 189.896L309.046 195.369L309.016 205.783L318.431 200.311L318.461 189.896ZM328.014 184.345L318.736 189.737L318.705 200.151L327.983 194.759L328.014 184.345ZM337.803 178.654L328.288 184.185L328.257 194.599L337.773 189.068L337.803 178.654ZM347.355 173.102L338.078 178.495L338.047 188.909L347.325 183.516L347.355 173.102ZM290.322 216.965L299.463 211.652L299.431 222.543L290.29 227.856L290.322 216.965ZM299.737 211.493L308.74 206.26L308.709 217.15L299.705 222.383L299.737 211.493ZM309.015 206.1L318.43 200.628L318.398 211.518L308.983 216.99L309.015 206.1ZM318.704 200.468L327.982 195.076L327.951 205.966L318.673 211.358L318.704 200.468ZM328.257 194.916L337.772 189.386L337.74 200.276L328.225 205.806L328.257 194.916ZM338.046 189.226L347.324 183.833L347.292 194.723L338.014 200.116L338.046 189.226ZM299.43 222.86L290.289 228.173L290.258 238.904L299.399 233.591L299.43 222.86ZM308.708 217.467L299.704 222.7L299.673 233.432L308.677 228.199L308.708 217.467ZM318.397 211.835L308.982 217.308L308.951 228.039L318.366 222.567L318.397 211.835ZM327.95 206.283L318.672 211.676L318.64 222.407L327.918 217.014L327.95 206.283ZM337.739 200.593L328.224 206.123L328.193 216.855L337.708 211.324L337.739 200.593ZM347.292 195.041L338.014 200.433L337.983 211.165L347.26 205.772L347.292 195.041ZM290.257 239.221L299.398 233.909L299.366 244.915L290.225 250.228L290.257 239.221ZM299.672 233.749L308.676 228.516L308.644 239.522L299.64 244.755L299.672 233.749ZM308.95 228.356L318.365 222.884L318.333 233.89L308.918 239.362L308.95 228.356ZM318.639 222.724L327.917 217.332L327.886 228.338L318.607 233.73L318.639 222.724ZM328.192 217.172L337.708 211.641L337.675 222.648L328.16 228.178L328.192 217.172ZM337.982 211.482L347.26 206.089L347.227 217.095L337.95 222.488L337.982 211.482ZM299.365 245.232L290.224 250.545L290.193 261.276L299.334 255.963L299.365 245.232ZM308.643 239.839L299.639 245.072L299.608 255.804L308.611 250.571L308.643 239.839ZM318.332 234.207L308.917 239.68L308.886 250.411L318.301 244.939L318.332 234.207ZM327.885 228.655L318.606 234.047L318.575 244.779L327.853 239.386L327.885 228.655ZM337.674 222.965L328.159 228.496L328.128 239.227L337.643 233.696L337.674 222.965ZM347.227 217.412L337.948 222.805L337.917 233.537L347.195 228.144L347.227 217.412Z" fill="#0081F1"/>
</g>
<mask id="path-36-inside-1_106_9492" fill="white">
<path fill-rule="evenodd" clip-rule="evenodd" d="M281.143 156.877H223.922V222.415L280.893 255.149L281.143 255.005V156.877Z"/>
</mask>
<path fill-rule="evenodd" clip-rule="evenodd" d="M281.143 156.877H223.922V222.415L280.893 255.149L281.143 255.005V156.877Z" fill="url(#paint18_linear_106_9492)"/>
<path d="M223.922 156.877V156.229H223.275V156.877H223.922ZM281.143 156.877H281.791V156.229H281.143V156.877ZM223.922 222.415H223.275V222.79L223.6 222.977L223.922 222.415ZM280.893 255.149L280.571 255.71L280.893 255.896L281.216 255.71L280.893 255.149ZM281.143 255.005L281.466 255.567L281.791 255.38V255.005H281.143ZM223.922 157.524H281.143V156.229H223.922V157.524ZM224.57 222.415V156.877H223.275V222.415H224.57ZM281.216 254.588L224.245 221.854L223.6 222.977L280.571 255.71L281.216 254.588ZM280.821 254.444L280.571 254.588L281.216 255.71L281.466 255.567L280.821 254.444ZM281.791 255.005V156.877H280.496V255.005H281.791Z" fill="#0081F1" mask="url(#path-36-inside-1_106_9492)"/>
<mask id="mask4_106_9492" style="mask-type:alpha" maskUnits="userSpaceOnUse" x="223" y="156" width="59" height="100">
<mask id="path-38-inside-2_106_9492" fill="white">
<path fill-rule="evenodd" clip-rule="evenodd" d="M281.143 156.877H223.922V222.415L280.893 255.149L281.143 255.005V156.877Z"/>
</mask>
<path fill-rule="evenodd" clip-rule="evenodd" d="M281.143 156.877H223.922V222.415L280.893 255.149L281.143 255.005V156.877Z" fill="white"/>
<path d="M223.922 156.877V156.229H223.275V156.877H223.922ZM281.143 156.877H281.791V156.229H281.143V156.877ZM223.922 222.415H223.275V222.79L223.6 222.977L223.922 222.415ZM280.893 255.149L280.571 255.71L280.893 255.896L281.216 255.71L280.893 255.149ZM281.143 255.005L281.466 255.567L281.791 255.38V255.005H281.143ZM223.922 157.524H281.143V156.229H223.922V157.524ZM224.57 222.415V156.877H223.275V222.415H224.57ZM281.216 254.588L224.245 221.854L223.6 222.977L280.571 255.71L281.216 254.588ZM280.821 254.444L280.571 254.588L281.216 255.71L281.466 255.567L280.821 254.444ZM281.791 255.005V156.877H280.496V255.005H281.791Z" fill="white" mask="url(#path-38-inside-2_106_9492)"/>
</mask>
<g mask="url(#mask4_106_9492)">
<path fill-rule="evenodd" clip-rule="evenodd" d="M271.069 184.073L271.342 184.073L271.374 194.944L280.772 200.406L280.636 200.644L271.375 195.261L271.406 205.834L280.718 211.246L280.582 211.484L271.407 206.151L271.437 216.565L280.526 221.848L280.39 222.085L271.438 216.882L271.47 227.772L280.748 233.165L280.612 233.402L271.471 228.089L271.502 238.821L280.831 244.243L280.695 244.481L271.503 239.138L271.535 250.144L280.678 255.458L280.542 255.696L271.536 250.461L271.567 261.192L280.762 266.537L280.626 266.774L271.568 261.51L271.598 271.986L271.325 271.985L271.294 261.35L262.153 256.037L262.184 266.613L261.91 266.612L261.879 255.878L252.875 250.645L252.907 261.478L252.633 261.477L252.601 250.485L243.185 245.013L243.216 255.628L242.943 255.627L242.911 244.854L233.633 239.461L233.664 250.016L233.39 250.016L233.359 239.301L223.844 233.77L223.875 244.541L223.601 244.541L223.569 233.611L214.291 228.218L214.322 238.93L214.049 238.929L214.017 228.059L204.619 222.597L204.755 222.359L214.016 227.741L213.985 217.01L204.535 211.518L204.671 211.28L213.984 216.693L213.952 205.687L204.689 200.303L204.825 200.065L213.951 205.37L213.92 194.638L204.605 189.224L204.741 188.987L213.919 194.321L213.887 183.431L204.384 177.907L204.52 177.67L213.886 183.114L213.856 172.7L204.575 167.306L204.711 167.068L213.855 172.382L213.824 161.81L204.629 156.466L204.765 156.228L213.823 161.493L213.793 151.016L214.066 151.017L214.097 161.652L223.375 167.045L223.345 156.628L223.619 156.629L223.65 167.204L233.165 172.735L233.134 162.103L233.408 162.104L233.44 172.894L242.718 178.287L242.687 167.714L242.961 167.715L242.992 178.447L252.407 183.919L252.377 173.565L252.651 173.565L252.681 184.079L261.685 189.312L261.654 178.7L261.928 178.7L261.959 189.471L271.1 194.784L271.069 184.073ZM271.101 195.102L261.96 189.788L261.991 200.361L271.132 205.674L271.101 195.102ZM261.686 189.629L252.682 184.396L252.713 194.968L261.717 200.201L261.686 189.629ZM252.408 184.236L242.993 178.764L243.024 189.336L252.439 194.809L252.408 184.236ZM242.719 178.604L233.441 173.212L233.471 183.784L242.749 189.177L242.719 178.604ZM233.166 173.052L223.651 167.521L223.681 178.094L233.197 183.625L233.166 173.052ZM223.377 167.362L214.099 161.969L214.129 172.542L223.407 177.935L223.377 167.362ZM261.992 200.678L271.133 205.991L271.163 216.405L262.022 211.092L261.992 200.678ZM252.714 195.286L261.718 200.519L261.748 210.933L252.744 205.7L252.714 195.286ZM243.024 189.654L252.44 195.126L252.47 205.54L243.055 200.068L243.024 189.654ZM233.472 184.102L242.75 189.494L242.781 199.908L233.503 194.516L233.472 184.102ZM223.682 178.411L233.198 183.942L233.228 194.356L223.713 188.825L223.682 178.411ZM214.13 172.859L223.408 178.252L223.439 188.666L214.161 183.273L214.13 172.859ZM271.164 216.722L262.023 211.409L262.055 222.3L271.196 227.613L271.164 216.722ZM261.749 211.25L252.745 206.017L252.777 216.907L261.781 222.14L261.749 211.25ZM252.471 205.858L243.056 200.385L243.088 211.275L252.503 216.747L252.471 205.858ZM242.782 200.225L233.503 194.833L233.535 205.723L242.813 211.115L242.782 200.225ZM233.229 194.673L223.714 189.143L223.746 200.033L233.261 205.563L233.229 194.673ZM223.439 188.983L214.162 183.59L214.193 194.48L223.471 199.873L223.439 188.983ZM262.056 222.617L271.197 227.93L271.228 238.661L262.087 233.348L262.056 222.617ZM252.778 217.224L261.782 222.457L261.813 233.189L252.809 227.956L252.778 217.224ZM243.088 211.592L252.504 217.065L252.535 227.796L243.12 222.324L243.088 211.592ZM233.536 206.04L242.814 211.433L242.845 222.164L233.568 216.772L233.536 206.04ZM223.747 200.35L233.262 205.881L233.293 216.612L223.778 211.081L223.747 200.35ZM214.194 194.798L223.472 200.19L223.503 210.922L214.225 205.529L214.194 194.798ZM271.229 238.978L262.088 233.666L262.12 244.672L271.261 249.985L271.229 238.978ZM261.814 233.506L252.81 228.273L252.842 239.279L261.846 244.512L261.814 233.506ZM252.536 228.113L243.121 222.641L243.153 233.647L252.568 239.119L252.536 228.113ZM242.846 222.481L233.568 217.089L233.6 228.095L242.878 233.487L242.846 222.481ZM233.294 216.929L223.778 211.398L223.811 222.405L233.326 227.935L233.294 216.929ZM223.504 211.239L214.226 205.846L214.258 216.852L223.536 222.245L223.504 211.239ZM262.121 244.989L271.262 250.302L271.293 261.033L262.152 255.72L262.121 244.989ZM252.843 239.596L261.847 244.829L261.878 255.561L252.875 250.328L252.843 239.596ZM243.154 233.964L252.569 239.437L252.6 250.168L243.185 244.696L243.154 233.964ZM233.601 228.412L242.879 233.805L242.91 244.536L233.632 239.143L233.601 228.412ZM223.811 222.722L233.327 228.253L233.358 238.984L223.843 233.453L223.811 222.722ZM214.259 217.169L223.537 222.562L223.569 233.294L214.291 227.901L214.259 217.169Z" fill="#0081F1"/>
</g>
<path d="M224.222 156.874L280.89 124.302L337.559 156.874L280.89 189.447L224.222 156.874Z" fill="url(#paint19_linear_106_9492)" stroke="#0081F1" stroke-width="0.647465" stroke-linecap="round"/>
<mask id="mask5_106_9492" style="mask-type:alpha" maskUnits="userSpaceOnUse" x="223" y="123" width="116" height="67">
<path d="M224.222 156.874L280.89 124.302L337.559 156.874L280.89 189.447L224.222 156.874Z" fill="white" stroke="white" stroke-width="0.647465" stroke-linecap="round"/>
</mask>
<g mask="url(#mask5_106_9492)">
<path fill-rule="evenodd" clip-rule="evenodd" d="M271.176 183.73L271.313 183.967L280.743 178.559L290.173 183.967L290.31 183.73L281.018 178.401L290.19 173.142L299.533 178.5L299.671 178.263L290.465 172.984L299.499 167.803L308.619 173.033L308.757 172.796L299.774 167.645L309.221 162.228L318.53 167.566L318.668 167.33L309.496 162.07L318.805 156.731L328.166 162.099L328.304 161.863L319.081 156.574L328.628 151.098L337.802 156.359L337.94 156.123L328.903 150.94L338.213 145.602L347.438 150.892L347.576 150.656L338.488 145.444L347.576 140.232L347.438 139.995L338.213 145.286L329.041 140.027L338.215 134.765L338.077 134.529L328.766 139.869L319.732 134.688L329.13 129.299L328.992 129.062L319.457 134.53L310.01 129.112L319.218 123.832L319.081 123.595L309.735 128.955L300.426 123.616L309.582 118.365L309.445 118.128L300.15 123.458L290.603 117.983L299.946 112.625L299.809 112.388L290.327 117.825L281.018 112.486L290.31 107.158L290.173 106.921L280.743 112.329L271.314 106.921L271.176 107.158L280.468 112.487L271.158 117.825L261.677 112.388L261.54 112.625L270.883 117.983L261.336 123.458L252.041 118.128L251.904 118.365L261.061 123.616L251.751 128.955L242.405 123.595L242.267 123.832L251.476 129.112L242.029 134.53L232.494 129.062L232.356 129.299L241.754 134.688L232.72 139.869L223.408 134.529L223.271 134.765L232.445 140.027L223.273 145.286L214.048 139.995L213.91 140.232L222.998 145.444L213.91 150.656L214.048 150.892L223.273 145.602L232.582 150.94L223.546 156.123L223.684 156.359L232.858 151.098L242.405 156.574L233.182 161.863L233.32 162.099L242.68 156.731L251.99 162.07L242.818 167.33L242.956 167.566L252.265 162.228L261.712 167.645L252.73 172.796L252.867 173.033L261.987 167.803L271.021 172.984L261.815 178.263L261.953 178.5L271.296 173.142L280.468 178.401L271.176 183.73ZM280.743 178.244L271.571 172.984L280.743 167.724L289.914 172.984L280.743 178.244ZM271.296 172.826L262.262 167.645L271.434 162.386L280.468 167.566L271.296 172.826ZM261.987 167.487L252.54 162.07L261.712 156.81L271.159 162.228L261.987 167.487ZM252.265 161.912L242.956 156.573L252.127 151.314L261.437 156.652L252.265 161.912ZM242.68 156.416L233.133 150.94L242.305 145.681L251.852 151.156L242.68 156.416ZM232.858 150.783L223.549 145.444L232.72 140.184L242.029 145.523L232.858 150.783ZM281.018 167.566L290.19 172.826L299.224 167.645L290.052 162.386L281.018 167.566ZM271.709 162.228L280.743 167.408L289.777 162.228L280.743 157.047L271.709 162.228ZM261.987 156.652L271.434 162.07L280.468 156.889L271.021 151.472L261.987 156.652ZM252.403 151.156L261.712 156.495L270.746 151.314L261.437 145.975L252.403 151.156ZM242.58 145.523L252.127 150.998L261.161 145.817L251.614 140.342L242.58 145.523ZM232.995 140.027L242.305 145.365L251.339 140.184L242.029 134.846L232.995 140.027ZM299.499 167.487L290.327 162.228L299.774 156.81L308.946 162.07L299.499 167.487ZM290.052 162.07L281.018 156.889L290.465 151.472L299.499 156.652L290.052 162.07ZM280.743 156.731L271.296 151.314L280.743 145.896L290.19 151.314L280.743 156.731ZM271.021 151.156L261.712 145.817L271.158 140.4L280.468 145.739L271.021 151.156ZM261.437 145.66L251.889 140.184L261.336 134.767L270.883 140.242L261.437 145.66ZM251.614 140.027L242.304 134.688L251.751 129.271L261.061 134.609L251.614 140.027ZM300.049 156.652L309.221 161.912L318.53 156.573L309.359 151.314L300.049 156.652ZM290.741 151.314L299.774 156.495L309.084 151.156L300.05 145.975L290.741 151.314ZM281.018 145.738L290.465 151.156L299.774 145.817L290.328 140.4L281.018 145.738ZM271.434 140.242L280.743 145.581L290.052 140.242L280.743 134.903L271.434 140.242ZM261.611 134.609L271.159 140.084L280.468 134.746L270.92 129.271L261.611 134.609ZM252.027 129.112L261.336 134.451L270.645 129.112L261.336 123.774L252.027 129.112ZM318.805 156.416L309.634 151.156L319.182 145.681L328.353 150.94L318.805 156.416ZM309.359 150.998L300.325 145.817L309.872 140.342L318.906 145.523L309.359 150.998ZM300.05 145.66L290.603 140.242L300.15 134.767L309.597 140.184L300.05 145.66ZM290.328 140.084L281.018 134.746L290.566 129.27L299.875 134.609L290.328 140.084ZM280.743 134.588L271.195 129.112L280.743 123.637L290.291 129.112L280.743 134.588ZM270.92 128.955L261.611 123.616L271.159 118.141L280.468 123.479L270.92 128.955ZM319.457 145.523L328.628 150.783L337.938 145.444L328.766 140.184L319.457 145.523ZM310.148 140.184L319.182 145.365L328.491 140.027L319.457 134.846L310.148 140.184ZM300.426 134.609L309.872 140.027L319.182 134.688L309.735 129.27L300.426 134.609ZM290.841 129.112L300.15 134.451L309.46 129.112L300.15 123.774L290.841 129.112ZM281.018 123.479L290.566 128.955L299.875 123.616L290.328 118.141L281.018 123.479ZM271.434 117.983L280.743 123.322L290.052 117.983L280.743 112.645L271.434 117.983Z" fill="#0081F1"/>
</g>
<path d="M252.217 156.594L251.729 156.874L252.217 157.155L280.729 173.544L280.89 173.636L281.052 173.544L309.564 157.155L310.052 156.874L309.564 156.594L281.052 140.205L280.89 140.113L280.729 140.205L252.217 156.594Z" fill="#00254D" stroke="#0081F1" stroke-width="0.647465" stroke-linecap="round"/>
<mask id="mask6_106_9492" style="mask-type:alpha" maskUnits="userSpaceOnUse" x="251" y="139" width="60" height="36">
<path d="M252.217 156.594L251.729 156.874L252.217 157.155L280.729 173.544L280.89 173.636L281.052 173.544L309.564 157.155L310.052 156.874L309.564 156.594L281.052 140.205L280.89 140.113L280.729 140.205L252.217 156.594Z" fill="white" stroke="white" stroke-width="0.647465" stroke-linecap="round"/>
</mask>
<g mask="url(#mask6_106_9492)">
<rect x="280.893" y="135.199" width="31.5392" height="40.524" fill="#3465ED"/>
</g>
<path fill-rule="evenodd" clip-rule="evenodd" d="M252.511 135.247L309.379 135.199V156.778L280.884 173.263L252.511 156.941V135.247Z" fill="url(#paint20_linear_106_9492)"/>
<path d="M266.966 230.512L266.903 197.625L238.454 181.127L238.517 214.014L266.966 230.512Z" fill="#00254D" stroke="#0081F1" stroke-width="0.647465" stroke-linecap="round"/>
<path fill-rule="evenodd" clip-rule="evenodd" d="M248.772 240.024L221.039 192.085L239.239 181.578L267.018 197.582L267.068 229.46L248.772 240.024Z" fill="url(#paint21_linear_106_9492)"/>
<g clip-path="url(#clip1_106_9492)">
<path d="M283.995 95.5236L283.862 95.4916L283.726 95.4793L265.557 93.8359C265.191 93.7663 264.801 93.7549 264.409 93.8282L264.137 93.8035L263.626 94.0948L255.225 98.8835C254.027 99.5254 253.649 100.785 253.649 101.796V113.795C253.649 127.958 261.44 144.827 272.908 155.86C273.473 156.403 274.213 156.888 275.072 157.053C279.495 157.905 283.539 157.356 286.897 155.466L286.906 155.461L295.345 150.652L295.347 150.651C301.186 147.315 304.346 140.285 304.346 131.309V119.304C304.346 117.754 303.542 116.114 302.425 115.053L286.035 96.7208L285.972 96.6507L285.903 96.5871C285.388 96.116 284.739 95.7023 283.995 95.5236Z" fill="#3258C2" stroke="#3258C2" stroke-width="3.74594"/>
<path d="M283.557 97.3447C283.91 97.4295 284.286 97.6462 284.639 97.9692L301.085 116.365C301.908 117.117 302.473 118.315 302.473 119.304L302.473 131.309C302.473 139.902 299.459 146.145 294.418 149.025L294.433 149.026L285.996 153.835L276.663 152.989L282.495 149.665C271.381 138.93 263.89 122.575 263.89 109.027L263.89 101.235L256.117 100.531L264.554 95.722L264.569 95.7233C264.771 95.6412 265.011 95.6272 265.278 95.6914L283.557 97.3447Z" fill="url(#paint22_linear_106_9492)"/>
<path fill-rule="evenodd" clip-rule="evenodd" d="M275.19 102.148C275.543 102.233 275.918 102.45 276.271 102.773L292.717 121.168C293.54 121.921 294.106 123.118 294.106 124.108L294.106 136.113C294.106 149.689 286.581 157.398 275.426 155.25C275.03 155.174 274.603 154.927 274.207 154.546C263.049 143.812 255.522 127.411 255.522 113.831L255.522 101.832C255.522 100.842 256.088 100.297 256.911 100.495L275.19 102.148Z" fill="url(#paint23_linear_106_9492)"/>
</g>
<g filter="url(#filter4_d_106_9492)">
<path fill-rule="evenodd" clip-rule="evenodd" d="M278.523 134.47L279.462 133.964L279.461 133.964L278.523 134.47ZM276.923 131.758L278.523 134.47L281.731 132.521C282.713 131.866 283.237 130.539 283.188 128.825C283.139 127.111 282.521 125.15 281.469 123.365C280.417 121.58 279.015 120.117 277.567 119.291C276.119 118.465 274.741 118.343 273.732 118.952L271.285 120.522L272.885 123.236L275.333 121.667C275.629 121.467 275.987 121.375 276.385 121.398C276.783 121.421 277.214 121.557 277.653 121.8C278.091 122.042 278.528 122.386 278.939 122.81C279.349 123.235 279.725 123.732 280.043 124.273C280.362 124.813 280.617 125.386 280.795 125.959C280.972 126.531 281.067 127.092 281.075 127.607C281.084 128.122 281.004 128.582 280.842 128.96C280.68 129.338 280.438 129.627 280.131 129.809L276.923 131.758Z" fill="white"/>
<path fill-rule="evenodd" clip-rule="evenodd" d="M267.466 126.972L265.857 124.241C265.186 124.975 264.842 126.132 264.888 127.55C264.945 129.268 265.569 131.23 266.626 133.012C267.683 134.793 269.088 136.25 270.536 137.067C271.984 137.885 273.359 137.996 274.363 137.378L276.797 135.785L275.189 133.077L272.754 134.668C272.46 134.871 272.103 134.966 271.706 134.946C271.309 134.926 270.878 134.792 270.44 134.552C270.001 134.313 269.564 133.971 269.153 133.549C268.741 133.126 268.365 132.631 268.044 132.091C267.724 131.551 267.467 130.979 267.288 130.406C267.109 129.833 267.011 129.272 267.001 128.756C266.99 128.239 267.067 127.777 267.227 127.397C267.294 127.24 267.374 127.097 267.466 126.972Z" fill="white"/>
<path fill-rule="evenodd" clip-rule="evenodd" d="M278.044 127.916L272.394 131.363L267.493 123.046L269.457 121.774L272.475 126.958L276.17 124.551L278.044 127.916Z" fill="white"/>
</g>
<path d="M189.933 292.23V291.387L189.203 290.966L90.7228 234.108L89.9928 233.687L89.2628 234.108L85.2931 236.4L84.5631 236.822V237.664V253.382L70.7818 245.425L70.0518 245.004L69.3218 245.425L65.3521 247.717L64.6221 248.139V248.982V265.057L50.8408 257.101L50.1108 256.679L49.3809 257.101L45.4111 259.393L44.6812 259.814V260.657L44.6812 342.892V343.735L45.4111 344.156L143.892 401.014L144.622 401.436L145.352 401.014L149.321 398.722L150.051 398.301V397.458V381.382L163.833 389.339L164.563 389.76L165.293 389.339L169.262 387.047L169.992 386.625V385.782V370.065L183.774 378.022L184.504 378.443L185.234 378.022L189.203 375.73L189.933 375.308V374.465V292.23Z" fill="#474C59" stroke="#474C59" stroke-width="2.91991"/>
<path d="M184.523 294.53L188.493 292.238L188.493 374.473L184.523 376.765L184.523 294.53Z" fill="url(#paint24_linear_106_9492)"/>
<path d="M90.0126 235.38L188.493 292.238L184.523 294.53L86.0428 237.672L90.0126 235.38Z" fill="url(#paint25_linear_106_9492)"/>
<path d="M86.0428 237.672L184.523 294.53L184.523 376.765L86.0428 319.907L86.0428 237.672Z" fill="url(#paint26_linear_106_9492)"/>
<path d="M91.1442 254.388C91.1442 253.313 91.899 252.877 92.83 253.415L176.793 301.89C177.724 302.428 178.478 303.735 178.478 304.81L178.478 365.091C178.478 366.166 177.724 366.602 176.793 366.064L92.83 317.589C91.899 317.051 91.1442 315.744 91.1442 314.669L91.1442 254.388Z" fill="url(#paint27_linear_106_9492)"/>
<ellipse rx="1.83354" ry="1.83354" transform="matrix(0.866025 0.500001 -2.20304e-08 1 92.7321 247.514)" fill="#7587BA"/>
<ellipse rx="1.83354" ry="1.83354" transform="matrix(0.866026 0.499999 -2.20305e-08 1 97.4305 250.264)" fill="#7587BA"/>
<ellipse rx="1.83354" ry="1.83354" transform="matrix(0.866026 0.499999 -2.20305e-08 1 102.072 253.014)" fill="#7587BA"/>
<path d="M164.582 305.847L168.552 303.555L168.552 385.79L164.582 388.082L164.582 305.847Z" fill="url(#paint28_linear_106_9492)"/>
<path d="M70.0715 246.697L168.552 303.555L164.582 305.847L66.1018 248.989L70.0715 246.697Z" fill="url(#paint29_linear_106_9492)"/>
<path d="M66.1018 248.989L164.582 305.847L164.582 388.082L66.1018 331.224L66.1018 248.989Z" fill="url(#paint30_linear_106_9492)"/>
<path d="M71.2032 265.705C71.2032 264.63 71.958 264.194 72.889 264.732L156.851 313.207C157.783 313.745 158.537 315.052 158.537 316.127L158.537 376.408C158.537 377.483 157.783 377.919 156.851 377.381L72.889 328.906C71.9579 328.368 71.2032 327.061 71.2032 325.986L71.2032 265.705Z" fill="url(#paint31_linear_106_9492)"/>
<ellipse rx="1.83354" ry="1.83354" transform="matrix(0.866025 0.5 -2.20305e-08 1 72.7911 258.831)" fill="#7587BA"/>
<ellipse rx="1.83354" ry="1.83354" transform="matrix(0.866025 0.5 -2.20305e-08 1 77.4895 261.581)" fill="#7587BA"/>
<ellipse rx="1.83354" ry="1.83354" transform="matrix(0.866025 0.5 -2.20305e-08 1 82.1306 264.331)" fill="#7587BA"/>
<path d="M144.641 317.522L148.611 315.23L148.611 397.465L144.641 399.757L144.641 317.522Z" fill="url(#paint32_linear_106_9492)"/>
<path d="M50.1305 258.372L148.611 315.23L144.641 317.522L46.1608 260.664L50.1305 258.372Z" fill="url(#paint33_linear_106_9492)"/>
<path d="M46.1608 260.664L144.641 317.522L144.641 399.757L46.1608 342.899L46.1608 260.664Z" fill="url(#paint34_linear_106_9492)"/>
<path d="M51.2622 277.38C51.2622 276.305 52.017 275.87 52.948 276.407L136.91 324.883C137.842 325.42 138.596 326.728 138.596 327.803L138.596 388.083C138.596 389.159 137.842 389.594 136.91 389.057L52.948 340.581C52.017 340.043 51.2622 338.736 51.2622 337.661L51.2622 277.38Z" fill="white"/>
<ellipse rx="1.83354" ry="1.83354" transform="matrix(0.866026 0.5 -2.20305e-08 1 52.85 270.506)" fill="url(#paint35_linear_106_9492)"/>
<ellipse rx="1.83354" ry="1.83354" transform="matrix(0.866025 0.5 -2.20305e-08 1 57.5485 273.256)" fill="url(#paint36_linear_106_9492)"/>
<ellipse rx="1.83354" ry="1.83354" transform="matrix(0.866025 0.500001 -2.20305e-08 1 62.1896 276.007)" fill="url(#paint37_linear_106_9492)"/>
<g clip-path="url(#clip2_106_9492)">
<rect width="48.965" height="11.3393" rx="2.09617" transform="matrix(0.866025 0.5 -2.20305e-08 1 73.7268 322.289)" fill="url(#paint38_linear_106_9492)"/>
<path d="M73.7268 322.289L77.0984 324.235L77.0984 338.835L73.7268 336.888L73.7268 322.289Z" fill="#7587BA"/>
</g>
<rect width="48.965" height="11.3393" rx="2.09617" transform="matrix(0.866025 0.5 -2.20305e-08 1 73.7268 306.895)" fill="url(#paint39_linear_106_9492)"/>
<path d="M106.383 348.316L106.383 356.381L107.789 355.616L108.772 358.873L110.344 359.008L109.428 355.926L111.438 357.086L106.383 348.316Z" fill="#7587BA"/>
<defs>
<filter id="filter0_d_106_9492" x="133.084" y="219.766" width="163.221" height="99.4322" filterUnits="userSpaceOnUse" color-interpolation-filters="sRGB">
<feFlood flood-opacity="0" result="BackgroundImageFix"/>
<feColorMatrix in="SourceAlpha" type="matrix" values="0 0 0 0 0 0 0 0 0 0 0 0 0 0 0 0 0 0 127 0" result="hardAlpha"/>
<feOffset dy="2.04906"/>
<feGaussianBlur stdDeviation="3.07359"/>
<feColorMatrix type="matrix" values="0 0 0 0 0 0 0 0 0 0 0 0 0 0 0 0 0 0 0.15 0"/>
<feBlend mode="normal" in2="BackgroundImageFix" result="effect1_dropShadow_106_9492"/>
<feBlend mode="normal" in="SourceGraphic" in2="effect1_dropShadow_106_9492" result="shape"/>
</filter>
<filter id="filter1_f_106_9492" x="363.55" y="3.93229" width="92.9177" height="92.9177" filterUnits="userSpaceOnUse" color-interpolation-filters="sRGB">
<feFlood flood-opacity="0" result="BackgroundImageFix"/>
<feBlend mode="normal" in="SourceGraphic" in2="BackgroundImageFix" result="shape"/>
<feGaussianBlur stdDeviation="15.368" result="effect1_foregroundBlur_106_9492"/>
</filter>
<filter id="filter2_f_106_9492" x="383.767" y="0.554844" width="103.383" height="103.382" filterUnits="userSpaceOnUse" color-interpolation-filters="sRGB">
<feFlood flood-opacity="0" result="BackgroundImageFix"/>
<feBlend mode="normal" in="SourceGraphic" in2="BackgroundImageFix" result="shape"/>
<feGaussianBlur stdDeviation="15.368" result="effect1_foregroundBlur_106_9492"/>
</filter>
<filter id="filter3_f_106_9492" x="412.98" y="32.6055" width="92.9177" height="92.9177" filterUnits="userSpaceOnUse" color-interpolation-filters="sRGB">
<feFlood flood-opacity="0" result="BackgroundImageFix"/>
<feBlend mode="normal" in="SourceGraphic" in2="BackgroundImageFix" result="shape"/>
<feGaussianBlur stdDeviation="15.368" result="effect1_foregroundBlur_106_9492"/>
</filter>
<filter id="filter4_d_106_9492" x="263.885" y="117.57" width="20.8039" height="21.7007" filterUnits="userSpaceOnUse" color-interpolation-filters="sRGB">
<feFlood flood-opacity="0" result="BackgroundImageFix"/>
<feColorMatrix in="SourceAlpha" type="matrix" values="0 0 0 0 0 0 0 0 0 0 0 0 0 0 0 0 0 0 127 0" result="hardAlpha"/>
<feOffset dx="0.249729" dy="0.249729"/>
<feGaussianBlur stdDeviation="0.624324"/>
<feComposite in2="hardAlpha" operator="out"/>
<feColorMatrix type="matrix" values="0 0 0 0 0 0 0 0 0 0 0 0 0 0 0 0 0 0 0.15 0"/>
<feBlend mode="normal" in2="BackgroundImageFix" result="effect1_dropShadow_106_9492"/>
<feBlend mode="normal" in="SourceGraphic" in2="effect1_dropShadow_106_9492" result="shape"/>
</filter>
<linearGradient id="paint0_linear_106_9492" x1="294.122" y1="66.606" x2="188.602" y2="66.606" gradientUnits="userSpaceOnUse">
<stop stop-color="#D1D8EF"/>
<stop offset="0.610162" stop-color="#D8E1FB"/>
<stop offset="0.69247" stop-color="#B5BED9"/>
<stop offset="1" stop-color="#B4BDD8"/>
</linearGradient>
<linearGradient id="paint1_linear_106_9492" x1="188.539" y1="18.4871" x2="192.626" y2="85.5872" gradientUnits="userSpaceOnUse">
<stop stop-color="#EDF1FD"/>
<stop offset="1" stop-color="#E1E5F1"/>
</linearGradient>
<linearGradient id="paint2_linear_106_9492" x1="242.47" y1="23.3893" x2="259.111" y2="60.0715" gradientUnits="userSpaceOnUse">
<stop stop-color="#8495C7"/>
<stop offset="1" stop-color="#92A2D0"/>
</linearGradient>
<linearGradient id="paint3_linear_106_9492" x1="4.31565" y1="-0.0132947" x2="9.00377" y2="5.9534" gradientUnits="userSpaceOnUse">
<stop stop-color="#8495C7"/>
<stop offset="1" stop-color="#92A2D0"/>
</linearGradient>
<linearGradient id="paint4_linear_106_9492" x1="593.024" y1="210.381" x2="433.972" y2="210.381" gradientUnits="userSpaceOnUse">
<stop stop-color="#D1D8EF"/>
<stop offset="0.400167" stop-color="#D8E1FB"/>
<stop offset="0.472975" stop-color="#B5BED9"/>
<stop offset="1" stop-color="#B4BDD8"/>
</linearGradient>
<linearGradient id="paint5_linear_106_9492" x1="433.878" y1="162.28" x2="440.038" y2="263.421" gradientUnits="userSpaceOnUse">
<stop stop-color="#EDF1FD"/>
<stop offset="1" stop-color="#E1E5F1"/>
</linearGradient>
<linearGradient id="paint6_linear_106_9492" x1="506.172" y1="167.113" x2="536.79" y2="234.608" gradientUnits="userSpaceOnUse">
<stop stop-color="#8495C7"/>
<stop offset="1" stop-color="#92A2D0"/>
</linearGradient>
<linearGradient id="paint7_linear_106_9492" x1="219.41" y1="335.44" x2="10.0004" y2="335.44" gradientUnits="userSpaceOnUse">
<stop stop-color="#ECECEC"/>
<stop offset="1" stop-color="#DADADA"/>
</linearGradient>
<linearGradient id="paint8_linear_106_9492" x1="431.159" y1="76.6503" x2="392.137" y2="76.6503" gradientUnits="userSpaceOnUse">
<stop stop-color="#E8ECF8"/>
<stop offset="0.223958" stop-color="#D9DFEE"/>
<stop offset="0.859375" stop-color="#B4BDD8"/>
<stop offset="1" stop-color="#BEC5DC"/>
</linearGradient>
<linearGradient id="paint9_linear_106_9492" x1="429.608" y1="76.6503" x2="392.137" y2="76.6503" gradientUnits="userSpaceOnUse">
<stop stop-color="#D9DFEE"/>
<stop offset="0.489583" stop-color="#C7CEE3"/>
<stop offset="1" stop-color="#B4BDD8"/>
</linearGradient>
<radialGradient id="paint10_radial_106_9492" cx="0" cy="0" r="1" gradientUnits="userSpaceOnUse" gradientTransform="translate(418.345 44.1758) rotate(135) scale(24.0674)">
<stop stop-color="white"/>
<stop offset="0.255208" stop-color="#E8ECF9"/>
<stop offset="0.880208" stop-color="#AEB6CF"/>
<stop offset="1" stop-color="#C0C8DE"/>
</radialGradient>
<linearGradient id="paint11_linear_106_9492" x1="463.646" y1="87.2442" x2="411.638" y2="87.2442" gradientUnits="userSpaceOnUse">
<stop stop-color="#E8ECF8"/>
<stop offset="0.223958" stop-color="#D9DFEE"/>
<stop offset="0.859375" stop-color="#B4BDD8"/>
<stop offset="1" stop-color="#BEC5DC"/>
</linearGradient>
<linearGradient id="paint12_linear_106_9492" x1="461.58" y1="87.2442" x2="411.638" y2="87.2442" gradientUnits="userSpaceOnUse">
<stop stop-color="#D9DFEE"/>
<stop offset="0.489583" stop-color="#C7CEE3"/>
<stop offset="1" stop-color="#B4BDD8"/>
</linearGradient>
<radialGradient id="paint13_radial_106_9492" cx="0" cy="0" r="1" gradientUnits="userSpaceOnUse" gradientTransform="translate(446.569 43.9624) rotate(135) scale(32.0769)">
<stop stop-color="white"/>
<stop offset="0.255208" stop-color="#E8ECF9"/>
<stop offset="0.880208" stop-color="#AEB6CF"/>
<stop offset="1" stop-color="#C0C8DE"/>
</radialGradient>
<linearGradient id="paint14_linear_106_9492" x1="480.589" y1="105.323" x2="441.567" y2="105.323" gradientUnits="userSpaceOnUse">
<stop stop-color="#E8ECF8"/>
<stop offset="0.223958" stop-color="#D9DFEE"/>
<stop offset="0.859375" stop-color="#B4BDD8"/>
<stop offset="1" stop-color="#BEC5DC"/>
</linearGradient>
<linearGradient id="paint15_linear_106_9492" x1="479.038" y1="105.323" x2="441.567" y2="105.323" gradientUnits="userSpaceOnUse">
<stop stop-color="#D9DFEE"/>
<stop offset="0.489583" stop-color="#C7CEE3"/>
<stop offset="1" stop-color="#B4BDD8"/>
</linearGradient>
<radialGradient id="paint16_radial_106_9492" cx="0" cy="0" r="1" gradientUnits="userSpaceOnUse" gradientTransform="translate(467.775 72.849) rotate(135) scale(24.0674)">
<stop stop-color="white"/>
<stop offset="0.255208" stop-color="#E8ECF9"/>
<stop offset="0.880208" stop-color="#AEB6CF"/>
<stop offset="1" stop-color="#C0C8DE"/>
</radialGradient>
<linearGradient id="paint17_linear_106_9492" x1="357.037" y1="197.498" x2="305.59" y2="157.347" gradientUnits="userSpaceOnUse">
<stop stop-color="#3364ED"/>
<stop offset="1" stop-color="#C3E4FF"/>
</linearGradient>
<linearGradient id="paint18_linear_106_9492" x1="233.385" y1="271.232" x2="294.595" y2="259.444" gradientUnits="userSpaceOnUse">
<stop stop-color="#3364ED"/>
<stop offset="1" stop-color="#C3E4FF"/>
</linearGradient>
<linearGradient id="paint19_linear_106_9492" x1="337.559" y1="189.447" x2="337.559" y2="124.302" gradientUnits="userSpaceOnUse">
<stop stop-color="#C3E4FF"/>
<stop offset="1" stop-color="#648DFF"/>
</linearGradient>
<linearGradient id="paint20_linear_106_9492" x1="308.165" y1="172.565" x2="308.165" y2="136.126" gradientUnits="userSpaceOnUse">
<stop stop-color="#29FFF2"/>
<stop offset="1" stop-color="#C3E4FF" stop-opacity="0.01"/>
</linearGradient>
<linearGradient id="paint21_linear_106_9492" x1="253.48" y1="174.134" x2="222.159" y2="192.218" gradientUnits="userSpaceOnUse">
<stop stop-color="#10B3FF"/>
<stop offset="1" stop-color="#C3E4FF" stop-opacity="0.01"/>
</linearGradient>
<linearGradient id="paint22_linear_106_9492" x1="258.233" y1="98.5225" x2="284.928" y2="156.719" gradientUnits="userSpaceOnUse">
<stop stop-color="#6F93F8"/>
<stop offset="0.147964" stop-color="#8FACFF"/>
<stop offset="0.229046" stop-color="#AEC4FF"/>
<stop offset="0.55746" stop-color="#BED0FF"/>
<stop offset="0.62351" stop-color="#A0B9FF"/>
<stop offset="1" stop-color="#6E92F9"/>
</linearGradient>
<linearGradient id="paint23_linear_106_9492" x1="261.722" y1="147.434" x2="255.858" y2="94.9199" gradientUnits="userSpaceOnUse">
<stop stop-color="#618AFF"/>
<stop offset="1" stop-color="#3261E4"/>
</linearGradient>
<linearGradient id="paint24_linear_106_9492" x1="186.508" y1="294.206" x2="178.187" y2="295.057" gradientUnits="userSpaceOnUse">
<stop stop-color="#CFD8EF"/>
<stop offset="1" stop-color="#D5DAE9"/>
</linearGradient>
<linearGradient id="paint25_linear_106_9492" x1="89.9519" y1="235.348" x2="87.7763" y2="239.148" gradientUnits="userSpaceOnUse">
<stop stop-color="#EDF1FD"/>
<stop offset="1" stop-color="#E1E5F1"/>
</linearGradient>
<linearGradient id="paint26_linear_106_9492" x1="140.523" y1="352.051" x2="153.403" y2="271.464" gradientUnits="userSpaceOnUse">
<stop stop-color="#CAD1E7"/>
<stop offset="1" stop-color="#B4BDD8"/>
</linearGradient>
<linearGradient id="paint27_linear_106_9492" x1="130.201" y1="274.902" x2="130.201" y2="339.076" gradientUnits="userSpaceOnUse">
<stop stop-color="#8495C7"/>
<stop offset="1" stop-color="#92A2D0"/>
</linearGradient>
<linearGradient id="paint28_linear_106_9492" x1="166.567" y1="305.523" x2="158.246" y2="306.374" gradientUnits="userSpaceOnUse">
<stop stop-color="#CFD8EF"/>
<stop offset="1" stop-color="#D5DAE9"/>
</linearGradient>
<linearGradient id="paint29_linear_106_9492" x1="70.0109" y1="246.665" x2="67.8352" y2="250.465" gradientUnits="userSpaceOnUse">
<stop stop-color="#EDF1FD"/>
<stop offset="1" stop-color="#E1E5F1"/>
</linearGradient>
<linearGradient id="paint30_linear_106_9492" x1="120.582" y1="363.368" x2="133.462" y2="282.781" gradientUnits="userSpaceOnUse">
<stop stop-color="#CAD1E7"/>
<stop offset="1" stop-color="#B4BDD8"/>
</linearGradient>
<linearGradient id="paint31_linear_106_9492" x1="110.26" y1="286.219" x2="110.26" y2="350.393" gradientUnits="userSpaceOnUse">
<stop stop-color="#8495C7"/>
<stop offset="1" stop-color="#92A2D0"/>
</linearGradient>
<linearGradient id="paint32_linear_106_9492" x1="146.626" y1="317.198" x2="138.305" y2="318.049" gradientUnits="userSpaceOnUse">
<stop stop-color="#CFD8EF"/>
<stop offset="1" stop-color="#D5DAE9"/>
</linearGradient>
<linearGradient id="paint33_linear_106_9492" x1="50.0699" y1="258.34" x2="47.8943" y2="262.141" gradientUnits="userSpaceOnUse">
<stop stop-color="#EDF1FD"/>
<stop offset="1" stop-color="#E1E5F1"/>
</linearGradient>
<linearGradient id="paint34_linear_106_9492" x1="100.641" y1="375.044" x2="113.521" y2="294.456" gradientUnits="userSpaceOnUse">
<stop stop-color="#CAD1E7"/>
<stop offset="1" stop-color="#B4BDD8"/>
</linearGradient>
<linearGradient id="paint35_linear_106_9492" x1="-0.00217099" y1="0.00217099" x2="0.420793" y2="4.01149" gradientUnits="userSpaceOnUse">
<stop stop-color="#EDF1FD"/>
<stop offset="1" stop-color="#E1E5F1"/>
</linearGradient>
<linearGradient id="paint36_linear_106_9492" x1="-0.00217098" y1="0.00217099" x2="0.420795" y2="4.01149" gradientUnits="userSpaceOnUse">
<stop stop-color="#EDF1FD"/>
<stop offset="1" stop-color="#E1E5F1"/>
</linearGradient>
<linearGradient id="paint37_linear_106_9492" x1="-0.00217099" y1="0.002171" x2="0.420796" y2="4.0115" gradientUnits="userSpaceOnUse">
<stop stop-color="#EDF1FD"/>
<stop offset="1" stop-color="#E1E5F1"/>
</linearGradient>
<linearGradient id="paint38_linear_106_9492" x1="-0.0289883" y1="0.00671309" x2="0.277078" y2="12.5347" gradientUnits="userSpaceOnUse">
<stop stop-color="#EDF1FD"/>
<stop offset="1" stop-color="#E1E5F1"/>
</linearGradient>
<linearGradient id="paint39_linear_106_9492" x1="-0.0289883" y1="0.00671309" x2="0.277078" y2="12.5347" gradientUnits="userSpaceOnUse">
<stop stop-color="#EDF1FD"/>
<stop offset="1" stop-color="#E1E5F1"/>
</linearGradient>
<clipPath id="clip0_106_9492">
<rect width="135.981" height="38.2944" rx="19.1472" transform="matrix(0.866025 0.5 -0.866025 0.5 172.395 223.864)" fill="white"/>
</clipPath>
<clipPath id="clip1_106_9492">
<rect width="75.2717" height="75.2717" fill="white" transform="translate(241.362 86.8141)"/>
</clipPath>
<clipPath id="clip2_106_9492">
<rect width="48.965" height="11.3393" rx="2.09617" transform="matrix(0.866025 0.5 -2.20305e-08 1 73.7268 322.289)" fill="white"/>
</clipPath>
</defs>
</svg>
