<svg width="77" height="21" viewBox="0 0 77 21" fill="none" xmlns="http://www.w3.org/2000/svg">
<g clip-path="url(#clip0_122_14170)">
<path fill-rule="evenodd" clip-rule="evenodd" d="M14.7858 13.4133L15.7685 12.4559L15.7674 12.4559L14.7858 13.4133ZM13.1116 11.83L14.7858 13.4133L18.1428 9.94354C19.1709 8.82947 19.7186 7.35522 19.6674 5.84016C19.6162 4.3251 18.9701 2.89122 17.8691 1.84914C16.7682 0.807059 15.301 0.240687 13.7854 0.272713C12.2698 0.30474 10.8279 0.932587 9.77192 2.02025L7.21098 4.74189L8.88516 6.32631L11.4473 3.6058C11.7571 3.26693 12.1314 2.99316 12.5482 2.80048C12.965 2.6078 13.416 2.50005 13.8749 2.48353C14.3338 2.46701 14.7913 2.54204 15.2209 2.70425C15.6505 2.86646 16.0435 3.1126 16.3769 3.42831C16.7103 3.74402 16.9775 4.12297 17.163 4.54305C17.3484 4.96313 17.4483 5.41594 17.4568 5.87504C17.4654 6.33414 17.3824 6.79035 17.2127 7.21704C17.0431 7.64374 16.7901 8.03237 16.4687 8.36027L13.1116 11.83Z" fill="#35576B"/>
<path fill-rule="evenodd" clip-rule="evenodd" d="M3.21471 12.5857L1.53067 10.9904C0.828282 12.0096 0.468498 13.2345 0.517183 14.4852C0.576146 16 1.22953 17.4306 2.33579 18.467C3.44205 19.5035 4.91211 20.0624 6.42751 20.0226C7.94292 19.9828 9.38164 19.3476 10.432 18.2546L12.979 15.5199L11.2968 13.9441L8.74859 16.6776C8.44046 17.0181 8.06761 17.2937 7.6518 17.4885C7.23599 17.6834 6.78555 17.7934 6.32676 17.8123C5.86796 17.8311 5.41001 17.7584 4.97961 17.5984C4.54921 17.4384 4.15499 17.1943 3.81995 16.8803C3.48491 16.5663 3.21576 16.1887 3.0282 15.7696C2.84065 15.3504 2.73845 14.8981 2.72756 14.4391C2.71667 13.98 2.79731 13.5234 2.96478 13.0958C3.03413 12.9188 3.11779 12.7482 3.21471 12.5857Z" fill="#35576B"/>
<path fill-rule="evenodd" clip-rule="evenodd" d="M14.2842 7.77511L8.37132 13.8986L3.24295 9.04058L5.29787 6.84566L8.4562 9.89348L12.3237 5.75125L14.2842 7.77511Z" fill="url(#paint0_linear_122_14170)"/>
</g>
<path d="M40.456 4.076H37.72L34.372 13.814L31.096 4.076H28.144L32.788 17H35.776L40.456 4.076ZM44.0547 17.162C46.3947 17.162 48.0687 15.92 48.6087 13.742H46.1247C45.8367 14.696 45.0987 15.236 44.0007 15.236C42.7227 15.236 41.9667 14.372 41.8047 12.806H48.6267C49.0767 9.674 47.0607 7.208 44.0187 7.208C41.2467 7.208 39.2487 9.296 39.2487 12.158C39.2487 15.164 41.1747 17.162 44.0547 17.162ZM43.9647 9.044C45.1527 9.044 45.9087 9.89 45.9807 11.222H41.8407C42.0567 9.8 42.7947 9.044 43.9647 9.044ZM52.2646 12.338C52.2646 10.214 53.6866 9.71 55.8106 9.872V7.28C54.2626 7.28 52.7686 8.018 52.0666 9.242V7.388H49.7626V17H52.2646V12.338ZM59.4682 5.156C59.4682 4.274 58.7842 3.644 57.7942 3.644C56.8222 3.644 56.1382 4.274 56.1382 5.156C56.1382 6.002 56.8222 6.632 57.7942 6.632C58.7842 6.632 59.4682 6.002 59.4682 5.156ZM59.0722 17V7.388H56.5702V17H59.0722ZM64.1607 17V9.53H66.6627V7.388H64.1607V6.92C64.1607 6.254 64.6107 5.984 65.2947 5.984C65.6187 5.984 65.9787 6.038 66.2487 6.146V4.166C65.8347 3.986 65.3127 3.878 64.7007 3.878C62.7027 3.878 61.6767 4.958 61.6767 6.866V7.388H59.7327V9.53H61.6767V17H64.1607ZM76.2068 7.388H73.7048L71.5088 13.976L69.0968 7.388H66.3968L70.1768 16.892L68.8088 20.474H71.5268L76.2068 7.388Z" fill="#0A1B25"/>
<defs>
<linearGradient id="paint0_linear_122_14170" x1="8.69315" y1="5.85125" x2="8.91438" y2="13.8836" gradientUnits="userSpaceOnUse">
<stop stop-color="#5DC0F7"/>
<stop offset="1" stop-color="#0299EE"/>
</linearGradient>
<clipPath id="clip0_122_14170">
<rect width="20" height="20" fill="white"/>
</clipPath>
</defs>
</svg>
